<?xml version="1.0" encoding="UTF-8"?>
<svg id="Layer_1" xmlns="http://www.w3.org/2000/svg" version="1.1" viewBox="0 0 666.22 139.63">
  <!-- Generator: Adobe Illustrator 29.6.0, SVG Export Plug-In . SVG Version: 2.1.1 Build 207)  -->
  <defs>
    <style>
      .st0 {
        fill: #9df904;
      }

      .st1 {
        fill: #1f299b;
      }

      .st2 {
        fill: #fff;
      }
    </style>
  </defs>
  <g>
    <path class="st2" d="M290.2,21.51v12.99h-30.89c-.43-.68-.82-1.58-1.16-2.69-.34-1.11-.51-2.32-.51-3.62,0-2.35.51-4.05,1.53-5.1,1.02-1.05,2.4-1.58,4.13-1.58h26.9ZM273.13,34.5v-12.99h30.89c.43.68.82,1.58,1.16,2.69.34,1.11.51,2.32.51,3.62,0,2.29-.51,3.97-1.53,5.05-1.02,1.08-2.4,1.62-4.13,1.62h-26.9ZM273.32,31.99h16.23v45.63c-.68.19-1.73.37-3.15.56-1.42.19-2.88.28-4.36.28-3.22,0-5.47-.57-6.77-1.72-1.3-1.14-1.95-3.14-1.95-5.98V31.99Z"/>
    <path class="st2" d="M329.8,58.15h-16.23V21.33c.74-.12,1.84-.29,3.29-.51,1.45-.22,2.86-.32,4.22-.32,3.09,0,5.32.53,6.68,1.58,1.36,1.05,2.04,3.09,2.04,6.12v29.96ZM313.57,36.72h16.23v40.9c-.68.19-1.73.37-3.15.56-1.42.19-2.88.28-4.36.28-3.22,0-5.47-.57-6.77-1.72-1.3-1.14-1.95-3.14-1.95-5.98v-34.04ZM356.98,56.02h-36.45v-12.8h36.45v12.8ZM363.84,58.15h-16.23V21.33c.74-.12,1.84-.29,3.29-.51,1.45-.22,2.86-.32,4.22-.32,3.09,0,5.32.56,6.68,1.67,1.36,1.11,2.04,3.19,2.04,6.21v29.77ZM347.61,36.72h16.23v40.9c-.68.19-1.73.37-3.15.56-1.42.19-2.88.28-4.36.28-3.22,0-5.47-.57-6.77-1.72s-1.95-3.14-1.95-5.98v-34.04Z"/>
    <path class="st2" d="M391.67,62.79h-15.77V30.14c0-2.66.77-4.76,2.32-6.31,1.54-1.54,3.65-2.32,6.31-2.32,1.48,0,2.88.09,4.17.28s2.29.37,2.97.56v40.44ZM375.9,36.72h15.77v40.44c-.68.19-1.67.37-2.97.56s-2.69.28-4.17.28c-2.66,0-4.76-.77-6.31-2.32-1.55-1.54-2.32-3.65-2.32-6.31v-32.65ZM384.53,34.22v-12.71h30.61c.43.68.82,1.55,1.16,2.6.34,1.05.51,2.23.51,3.52,0,2.29-.5,3.96-1.48,5.01-.99,1.05-2.35,1.58-4.08,1.58h-26.71ZM384.53,55.46v-12.61h28.01c.43.68.82,1.55,1.16,2.6.34,1.05.51,2.23.51,3.52,0,2.29-.5,3.94-1.48,4.96-.99,1.02-2.35,1.53-4.08,1.53h-24.12ZM384.53,78v-12.8h30.98c.43.68.82,1.58,1.16,2.69.34,1.11.51,2.32.51,3.62,0,2.29-.5,3.94-1.48,4.96-.99,1.02-2.35,1.53-4.08,1.53h-27.08Z"/>
    <path class="st2" d="M484.14,63.9c-.8.62-1.84,1.15-3.11,1.58-1.27.43-2.74.65-4.41.65-2.23,0-4.07-.28-5.52-.83-1.45-.56-2.4-1.51-2.83-2.88-1.73-5.5-3.15-9.92-4.27-13.26s-1.98-6.28-2.6-8.81h-.46c-.19,3.65-.33,6.97-.42,9.97-.09,3-.16,5.91-.19,8.72-.03,2.81-.09,5.69-.19,8.63-.09,2.94-.23,6.17-.42,9.69-.8.25-1.86.49-3.15.74-1.3.25-2.6.37-3.9.37-2.66,0-4.76-.43-6.31-1.3-1.55-.87-2.32-2.44-2.32-4.73,0-1.54.06-3.66.19-6.35.12-2.69.29-5.72.51-9.09.22-3.37.43-6.91.65-10.62.22-3.71.45-7.39.7-11.04.25-3.65.46-7.05.65-10.2.49-.8,1.58-1.67,3.25-2.6,1.67-.93,4.02-1.39,7.05-1.39,3.28,0,5.86.51,7.75,1.53,1.89,1.02,3.23,2.67,4.04,4.96.74,1.98,1.54,4.31,2.41,7,.87,2.69,1.73,5.41,2.6,8.16.87,2.75,1.64,5.21,2.32,7.37h.46c1.48-5.13,2.98-10.16,4.5-15.07,1.51-4.92,2.86-8.98,4.04-12.2.93-.49,2.13-.91,3.62-1.25,1.48-.34,3.09-.51,4.82-.51,3.03,0,5.5.45,7.42,1.34,1.92.9,3.03,2.18,3.34,3.85.25,1.24.51,3.12.79,5.66.28,2.54.57,5.44.88,8.72.31,3.28.62,6.69.93,10.25.31,3.56.6,7,.88,10.34s.51,6.35.7,9.04c.19,2.69.31,4.81.37,6.35-1.05.62-2.15,1.07-3.29,1.34-1.15.28-2.61.42-4.41.42-2.29,0-4.25-.4-5.89-1.21-1.64-.8-2.52-2.38-2.64-4.73-.25-4.51-.43-8.72-.56-12.61s-.22-7.45-.28-10.67c-.06-3.21-.15-6.03-.28-8.44h-.46c-.62,2.41-1.52,5.44-2.69,9.09-1.17,3.65-2.6,8.32-4.27,14Z"/>
    <path class="st2" d="M535.44,58.15h-16.23V21.33c.74-.12,1.84-.29,3.29-.51,1.45-.22,2.86-.32,4.22-.32,3.09,0,5.32.53,6.68,1.58,1.36,1.05,2.04,3.09,2.04,6.12v29.96ZM519.2,36.72h16.23v40.9c-.68.19-1.73.37-3.15.56-1.42.19-2.88.28-4.36.28-3.22,0-5.47-.57-6.77-1.72s-1.95-3.14-1.95-5.98v-34.04Z"/>
    <path class="st2" d="M598.41,53.23v-11.69,34.22c-.87.8-2.12,1.45-3.76,1.95-1.64.49-3.6.74-5.89.74s-4.45-.34-6.49-1.02c-2.04-.68-3.71-2.32-5.01-4.92l-9.18-18.74c-.62-1.3-1.19-2.52-1.72-3.66-.53-1.14-1.04-2.33-1.53-3.57-.5-1.24-1.05-2.6-1.67-4.08l-15.67,3.43v-21.52c.87-1.24,2.19-2.16,3.99-2.78,1.79-.62,3.71-.93,5.75-.93,2.29,0,4.47.36,6.54,1.07,2.07.71,3.72,2.33,4.96,4.87l9.28,18.74c.62,1.24,1.19,2.44,1.72,3.62.53,1.17,1.05,2.38,1.58,3.62.52,1.24,1.07,2.6,1.62,4.08l15.49-3.43ZM547.49,40.62h14.93c.25,2.84.42,5.57.51,8.16s.14,5.05.14,7.37v21.56c-.62.12-1.62.28-3.01.46s-2.8.28-4.22.28c-3.09,0-5.26-.54-6.49-1.62-1.24-1.08-1.85-3.01-1.85-5.8v-30.42ZM598.41,58.24h-14.93c-.37-4.33-.57-8.32-.6-11.96-.03-3.65-.05-7.11-.05-10.39v-14.66c.68-.12,1.7-.28,3.06-.46,1.36-.19,2.75-.28,4.17-.28,3.09,0,5.25.54,6.49,1.62,1.24,1.08,1.85,3.01,1.85,5.8v30.33Z"/>
    <path class="st2" d="M659.07,66.03c-2.6,4.39-6.23,7.68-10.9,9.88-4.67,2.19-10.13,3.29-16.37,3.29-2.1,0-4.72-.16-7.84-.46-3.12-.31-5.92-.93-8.39-1.86-3.4-1.3-5.1-3.55-5.1-6.77V26.8c0-1.3.37-2.3,1.11-3.01.74-.71,1.7-1.28,2.88-1.72,2.66-.87,5.47-1.44,8.44-1.72,2.97-.28,5.63-.42,7.98-.42,6.43,0,12.04,1.07,16.83,3.2,4.79,2.13,8.53,5.38,11.22,9.74,2.69,4.36,4.04,9.91,4.04,16.65s-1.3,12.12-3.9,16.51ZM644.51,40.53c-1.17-2.47-2.83-4.34-4.96-5.61-2.13-1.27-4.65-1.9-7.56-1.9-.87,0-1.75.03-2.64.09-.9.06-1.81.15-2.74.28v32.28c.68.12,1.53.23,2.55.32,1.02.09,1.93.14,2.74.14,4.21,0,7.65-1.36,10.34-4.08,2.69-2.72,4.04-6.8,4.04-12.24,0-3.71-.59-6.8-1.76-9.28Z"/>
  </g>
  <g>
    <path class="st2" d="M273.37,126.71h-8.75v-16.6c0-.51.14-.9.41-1.17.27-.27.66-.49,1.17-.65.92-.29,2.05-.49,3.37-.62,1.32-.13,2.61-.19,3.85-.19,4.05,0,7.01.85,8.87,2.56,1.87,1.71,2.8,4.01,2.8,6.91,0,1.98-.42,3.7-1.27,5.17-.85,1.47-2.13,2.6-3.85,3.4s-3.92,1.2-6.6,1.2ZM264.62,124.85h3.92v12.15c-.19.06-.45.14-.77.21-.32.08-.67.12-1.05.12-.7,0-1.23-.14-1.58-.43-.35-.29-.53-.73-.53-1.34v-10.71ZM268.49,123.46h4.64c2.55,0,4.53-.53,5.93-1.6,1.4-1.07,2.1-2.69,2.1-4.86s-.68-3.75-2.03-4.76c-1.36-1-3.29-1.51-5.81-1.51-.86,0-1.71.04-2.56.12-.85.08-1.6.18-2.27.31v12.29Z"/>
    <path class="st2" d="M321.06,122.98h-3.92v-14.88c.16-.06.41-.14.74-.22.33-.08.69-.12,1.08-.12.7,0,1.23.14,1.58.41.35.27.53.73.53,1.36v13.44ZM317.14,120.11h3.92v16.6l-1.82.38c-.61,0-1.11-.2-1.51-.6-.4-.4-.6-.9-.6-1.51v-14.88ZM319.25,137.09v-3.35h15.55c.16.13.29.33.38.62s.14.61.14.96c0,.54-.14.97-.43,1.29-.29.32-.67.48-1.15.48h-14.49Z"/>
    <path class="st2" d="M376.98,111.02h-.19c-.48,1.34-1.04,2.93-1.7,4.78-.65,1.85-1.32,3.75-2.01,5.72-.69,1.96-1.33,3.79-1.94,5.48l-.24.72c-.19.57-.43,1.29-.72,2.15s-.59,1.76-.91,2.7c-.32.94-.62,1.82-.91,2.63-.29.81-.51,1.48-.67,1.99-.22.1-.45.17-.69.21-.24.05-.53.07-.88.07-.51,0-.96-.14-1.36-.41-.4-.27-.6-.71-.6-1.32,0-.29.05-.58.14-.89.1-.3.21-.63.33-.98.38-1.08.85-2.41,1.41-3.97.56-1.56,1.17-3.27,1.84-5.12.67-1.85,1.37-3.75,2.1-5.69.73-1.94,1.45-3.84,2.15-5.69.7-1.85,1.35-3.54,1.96-5.07.25-.13.64-.25,1.15-.38.51-.13,1.04-.19,1.58-.19.64,0,1.25.1,1.84.29.59.19.96.51,1.12.96.77,1.85,1.59,3.95,2.46,6.29.88,2.34,1.76,4.78,2.65,7.32.89,2.54,1.75,5,2.56,7.39.81,2.39,1.54,4.56,2.18,6.5-.22.29-.52.52-.88.69-.37.18-.77.26-1.22.26-.61,0-1.07-.14-1.39-.41-.32-.27-.59-.73-.81-1.36l-2.63-7.8-.38-1.34c-.64-1.94-1.3-3.91-1.98-5.88-.69-1.98-1.32-3.81-1.91-5.5-.59-1.69-1.08-3.08-1.46-4.16ZM369.04,129.34l1.24-3.21h13.35l.77,3.21h-15.35Z"/>
    <path class="st2" d="M426.87,108.01l.24,3.3h-11.19c-.1-.16-.19-.38-.29-.67s-.14-.59-.14-.91c0-.54.13-.96.38-1.27.25-.3.62-.45,1.1-.45h9.9ZM424.86,110.02h3.87v26.98c-.16.06-.41.14-.74.21-.33.08-.68.12-1.03.12-.7,0-1.23-.14-1.58-.43-.35-.29-.53-.73-.53-1.34v-25.54ZM426.77,111.31l-.24-3.3h11.15c.1.13.19.33.29.62s.14.59.14.91c0,.51-.13.93-.38,1.27-.25.33-.62.5-1.1.5h-9.85Z"/>
    <path class="st2" d="M472.84,125.32l-3.88-.05v-15.16c0-.64.19-1.15.57-1.53s.89-.57,1.53-.57c.35,0,.7.05,1.05.14.35.1.59.18.72.24v16.93ZM468.96,120.06h3.92v16.98c-.16.03-.41.09-.74.17-.33.08-.68.12-1.03.12-.7,0-1.24-.14-1.6-.43-.37-.29-.55-.72-.55-1.29v-15.55ZM471.06,111.31v-3.3h15.88c.1.13.19.33.29.62s.14.59.14.91c0,.51-.13.93-.38,1.27-.26.33-.62.5-1.1.5h-14.83ZM471.06,124.56v-3.3h14.21c.1.16.19.38.29.65.1.27.14.57.14.88,0,.51-.13.93-.38,1.27-.26.33-.62.5-1.1.5h-13.15Z"/>
    <path class="st2" d="M544.25,122.55c0,3.32-.61,6.1-1.82,8.35s-2.86,3.95-4.95,5.09c-2.09,1.15-4.46,1.72-7.1,1.72s-4.97-.57-7.08-1.72c-2.1-1.15-3.76-2.85-4.97-5.09s-1.82-5.03-1.82-8.35.62-6.1,1.87-8.35c1.24-2.25,2.91-3.95,5-5.09,2.09-1.15,4.42-1.72,7.01-1.72s4.97.57,7.06,1.72c2.09,1.15,3.75,2.85,4.97,5.09,1.23,2.25,1.84,5.03,1.84,8.35ZM540.28,122.55c0-3.79-.9-6.72-2.7-8.78-1.8-2.06-4.2-3.08-7.2-3.08s-5.35,1.03-7.15,3.08c-1.8,2.06-2.7,4.98-2.7,8.78s.89,6.72,2.68,8.78,4.18,3.08,7.17,3.08,5.44-1.03,7.22-3.08,2.68-4.98,2.68-8.78Z"/>
    <path class="st2" d="M585.91,126.09h-9.38v-15.98c0-.51.14-.9.41-1.17s.66-.49,1.17-.65c.92-.29,2.06-.49,3.42-.62,1.35-.13,2.67-.19,3.95-.19,3.99,0,6.97.81,8.94,2.44,1.98,1.63,2.97,3.91,2.97,6.84,0,1.88-.43,3.52-1.29,4.93-.86,1.4-2.14,2.49-3.83,3.25-1.69.77-3.81,1.15-6.36,1.15ZM576.54,125.04h3.92v11.96c-.19.06-.45.14-.77.21-.32.08-.67.12-1.05.12-.7,0-1.23-.14-1.58-.43-.35-.29-.53-.73-.53-1.34v-10.52ZM580.41,122.84h5.5c2.36,0,4.21-.51,5.55-1.53,1.34-1.02,2.01-2.53,2.01-4.54s-.7-3.47-2.1-4.5c-1.4-1.02-3.41-1.53-6.03-1.53-.86,0-1.73.04-2.61.12-.88.08-1.65.18-2.32.31v11.67ZM586.01,124.85l2.87-1.43c.89,1.12,1.82,2.28,2.77,3.49.96,1.21,1.88,2.39,2.77,3.54.89,1.15,1.69,2.18,2.39,3.08.7.91,1.24,1.62,1.63,2.13-.13.54-.41.97-.84,1.29s-.87.48-1.32.48c-.54,0-.99-.14-1.34-.41-.35-.27-.72-.66-1.1-1.17l-7.84-11Z"/>
    <path class="st2" d="M646.47,129.53c-.22.16-.52.3-.88.43-.37.13-.77.19-1.22.19-.51,0-.96-.08-1.36-.24-.4-.16-.68-.41-.84-.77-1.69-3.57-3.17-6.84-4.42-9.81-1.26-2.97-2.27-5.42-3.04-7.37h-.19c-.1,2.39-.2,4.62-.31,6.7-.11,2.07-.23,4.07-.36,6-.13,1.93-.25,3.91-.36,5.93-.11,2.03-.25,4.19-.41,6.48-.19.06-.44.13-.74.19-.3.06-.63.1-.98.1-.7,0-1.2-.15-1.48-.45s-.43-.71-.43-1.22c0-.38.04-1.27.12-2.66.08-1.39.17-3.08.29-5.09.11-2.01.25-4.15.41-6.43.16-2.28.33-4.53.5-6.74s.34-4.22.5-6c.25-.22.62-.43,1.1-.62s1.02-.29,1.63-.29c.73,0,1.35.14,1.87.43.51.29.91.73,1.2,1.34.83,1.63,1.66,3.4,2.49,5.31s1.64,3.83,2.44,5.74,1.56,3.71,2.3,5.41h.19c1.4-3.38,2.8-6.63,4.19-9.76,1.39-3.12,2.56-5.79,3.52-7.99.29-.16.65-.28,1.1-.36.45-.08.86-.12,1.24-.12.73,0,1.32.12,1.75.36s.71.63.84,1.17c.13.54.27,1.47.43,2.77.16,1.31.32,2.85.48,4.62.16,1.77.31,3.63.45,5.57.14,1.95.28,3.86.41,5.74s.25,3.58.36,5.09c.11,1.51.18,2.72.21,3.61-.29.19-.59.33-.91.43-.32.1-.69.14-1.1.14-.48,0-.9-.12-1.27-.36-.37-.24-.58-.68-.65-1.32-.19-3.09-.38-6.15-.55-9.16-.17-3.01-.33-5.78-.45-8.3-.13-2.52-.24-4.58-.33-6.17h-.19c-.7,1.75-1.66,4.01-2.87,6.77-1.21,2.76-2.76,6.32-4.64,10.69Z"/>
  </g>
  <g>
    <polygon class="st1" points="110.83 139.63 81.21 139.63 81.21 29.62 29.62 29.62 29.62 139.63 0 139.63 0 0 110.83 0 110.83 139.63"/>
    <path class="st0" d="M227.98,139.63h-29.62V55.41c0-14.22-11.57-25.8-25.8-25.8s-25.8,11.57-25.8,25.8v84.22h-29.62V55.41c0-30.55,24.86-55.41,55.41-55.41s55.41,24.86,55.41,55.41v84.22Z"/>
  </g>
</svg>